{"title":"Kung Fu Panda 2 2011 DVD9rip Dutch Klam","uid":6814092,"size":1520802020,"categoryP":"video","categoryS":"movies","magnet":"?xt=urn:btih:0b5ec4ee7aa642fc6b5f23d9d8a1bce1000f6fe7&amp;dn=Kung+Fu+Panda+2+2011+DVD9rip+Dutch+Klam&amp;tr=udp%3A%2F%2Ftracker.openbittorrent.com%3A80&amp;tr=udp%3A%2F%2Fopen.demonii.com%3A1337&amp;tr=udp%3A%2F%2Ftracker.coppersurfer.tk%3A6969&amp;tr=udp%3A%2F%2Fexodus.desync.com%3A6969","seeders":1,"leechers":0,"uploader":"Klambake","files":-1,"time":1321132438,"description":"Nederlands gesproken,\nPo's droom is uitgekomen nu hij De Drakenkrijger is en de Vredesvallei beschermt samen met zijn vrienden en andere Kung Fu meesters, De Vurige Vijf - Tijger, Kraan, Mantis, Viper en Aap. Zijn heerlijke leventje verandert volledig als er een nare tegenstander met een geheim wapen China probeert te veroveren en Kung Fu wil uitroeien. Samen met De Vurige Vijf moet hij China doorkruisen om deze vijand te overmeesteren. Maar hoe kan Po een wapen ontmantelen dat Kung Fu vernietigt? Hij zal daarvoor eerst zijn mysterieuze verleden moeten ontrafelen om vervolgens de juiste krachten uit zichzelf te halen.\n\nDutch spoken,\nPo joins forces with a group of new kung-fu masters to take on an old enemy with a deadly new weapon.\n\n------------------ Dutch Friends ------------------\nYou can find my Friends at: http://www.Film-Test.nl \n------ They got my dutch subs ----- and more ------\n\nGeneral:\n\nComplete name                    : Kung Fu Panda 2\\Kung Fu Panda 2.avi\nFormat                           : AVI\nFormat/Info                      : Audio Video Interleave\nFile size                        : 1.42 GiB\nDuration                         : 1h 26mn\nOverall bit rate                 : 2 338 Kbps\n\nVideo:\n\nFormat                           : MPEG-4 Visual\nFormat profile                   : Simple@L3\nFormat settings, BVOP            : No\nFormat settings, QPel            : No\nFormat settings, GMC             : No warppoints\nFormat settings, Matrix          : Default (H.263)\nCodec ID                         : XVID\nCodec ID/Hint                    : XviD\nDuration                         : 1h 26mn\nBit rate                         : 1 880 Kbps\nWidth                            : 720 pixels\nHeight                           : 304 pixels\nDisplay aspect ratio             : 2.35:1\nFrame rate                       : 25.000 fps\nColor space                      : YUV\nChroma subsampling               : 4:2:0\nBit depth                        : 8 bits\nScan type                        : Progressive\nCompression mode                 : Lossy\nBits/(Pixel*Frame)               : 0.343\nStream size                      : 1.14 GiB (80%)\nWriting library                  : XviD 1.1.2 (UTC 2006-11-01)\n\nAudio:\n\nFormat                           : AC-3\nFormat/Info                      : Audio Coding 3\nMode extension                   : CM (complete main)\nCodec ID                         : 2000\nDuration                         : 1h 26mn\nBit rate mode                    : Constant\nBit rate                         : 448 Kbps\nChannel(s)                       : 6 channels\nChannel positions                : Front: L C R, Side: L R, LFE\nSampling rate                    : 48.0 KHz\nBit depth                        : 16 bits\nCompression mode                 : Lossy\nStream size                      : 278 MiB (19%)\nAlignment                        : Aligned on interleaves\nInterleave, duration             : 32 ms (0.80 video frame)\nInterleave, preload duration     : 384 ms\n","torrent":{"xt":"urn:btih:0b5ec4ee7aa642fc6b5f23d9d8a1bce1000f6fe7","amp;dn":"Kung+Fu+Panda+2+2011+DVD9rip+Dutch+Klam","amp;tr":["udp%3A%2F%2Ftracker.openbittorrent.com%3A80","udp%3A%2F%2Fopen.demonii.com%3A1337","udp%3A%2F%2Ftracker.coppersurfer.tk%3A6969","udp%3A%2F%2Fexodus.desync.com%3A6969"],"infoHash":"0b5ec4ee7aa642fc6b5f23d9d8a1bce1000f6fe7","infoHashBuffer":{"type":"Buffer","data":[11,94,196,238,122,166,66,252,107,95,35,217,216,161,188,225,0,15,111,231]},"announce":[],"urlList":[]}}